# xmcd CD database file
#
# Track frame offsets:
#	150
#	15497
#	28600
#	51385
#	62265
#	83057
#	99452
#	109432
#	132572
#	149500
#	163820
#	182682
#	197387
#	213012
#
# Disc length: 3078 seconds
#
# Revision: 0
# Processed by: cddbd v1.5.1PL0 Copyright (c) Steve Scherf et al.
# Submitted via: CDex 1.51
#
DISCID=be0c040e
DTITLE=Cambridge University Fitz Swing Band - Groovin' Hard
DYEAR=1998
DGENRE=Jazz
TTITLE0=Groovin' Hard
TTITLE1=The Lady Is A Tramp
TTITLE2=Midnight Newsroom
TTITLE3=Can't Help Lovin' Dat Man
TTITLE4=Willowcrest
TTITLE5=How High The Moon
TTITLE6=I'm Beginning To See The Light
TTITLE7=One More Once
TTITLE8=Beyond The Sea
TTITLE9=Teddy Bears' Picnic
TTITLE10=Early Morning Train
TTITLE11=Switch In Time
TTITLE12=Flight Of The Foo Birds
TTITLE13=In The Mood
EXTD=YEAR: 1998
EXTT0=
EXTT1=
EXTT2=
EXTT3=
EXTT4=
EXTT5=
EXTT6=
EXTT7=
EXTT8=
EXTT9=
EXTT10=
EXTT11=
EXTT12=
EXTT13=
PLAYORDER=
